HIERARCHY
ROOT Hips
{
    OFFSET 0.000000 0.000000 0.000000
    CHANNELS 6 Xposition Yposition Zposition Zrotation Xrotation Yrotation
    JOINT Spine
    {
        OFFSET -0.000000 14.517291 0.000000
        CHANNELS 3 Zrotation Xrotation Yrotation
        JOINT Spine1
        {
            OFFSET -0.000000 37.558300 0.000000
            CHANNELS 3 Zrotation Xrotation Yrotation
            JOINT Neck
            {
                OFFSET -0.000000 37.404057 3.400369
                CHANNELS 3 Zrotation Xrotation Yrotation
                JOINT Head
                {
                    OFFSET -0.000000 24.785618 -3.540803
                    CHANNELS 3 Zrotation Xrotation Yrotation
                    End Site
                    {
                        OFFSET -0.000000 35.408028 0.000000
                    }
                }
            }
            JOINT LeftShoulder
            {
                OFFSET 6.992933 33.973492 -0.192664
                CHANNELS 3 Zrotation Xrotation Yrotation
                JOINT LeftArm
                {
                    OFFSET 21.527611 0.000000 0.000000
                    CHANNELS 3 Zrotation Xrotation Yrotation
                    JOINT LeftForeArm
                    {
                        OFFSET 56.353916 0.000000 0.000000
                        CHANNELS 3 Zrotation Xrotation Yrotation
                        JOINT LeftHand
                        {
                            OFFSET 47.774071 0.000000 0.000000
                            CHANNELS 3 Zrotation Xrotation Yrotation
                            End Site
                            {
                                OFFSET 26.556021 0.000000 0.000000
                            }
                        }
                    }
                }
            }
            JOINT RightShoulder
            {
                OFFSET -7.065357 33.973492 -0.192664
                CHANNELS 3 Zrotation Xrotation Yrotation
                JOINT RightArm
                {
                    OFFSET -21.527611 0.000000 0.000000
                    CHANNELS 3 Zrotation Xrotation Yrotation
                    JOINT RightForeArm
                    {
                        OFFSET -56.353916 0.000000 0.000000
                        CHANNELS 3 Zrotation Xrotation Yrotation
                        JOINT RightHand
                        {
                            OFFSET -47.774071 0.000000 0.000000
                            CHANNELS 3 Zrotation Xrotation Yrotation
                            End Site
                            {
                                OFFSET -26.556021 0.000000 0.000000
                            }
                        }
                    }
                }
            }
        }
    }
    JOINT LeftUpLeg
    {
        OFFSET 17.704014 0.000000 0.000000
        CHANNELS 3 Zrotation Xrotation Yrotation
        JOINT LeftLeg
        {
            OFFSET -0.000000 -81.181816 0.000000
            CHANNELS 3 Zrotation Xrotation Yrotation
            JOINT LeftFoot
            {
                OFFSET -0.000000 -62.821102 0.000000
                CHANNELS 3 Zrotation Xrotation Yrotation
                JOINT LeftToeBase
                {
                    OFFSET -0.000000 -11.507608 26.556021
                    CHANNELS 3 Zrotation Xrotation Yrotation
                    End Site
                    {
                        OFFSET -0.000000 0.000000 7.081605
                    }
                }
            }
        }
    }
    JOINT RightUpLeg
    {
        OFFSET -17.704014 0.000000 0.000000
        CHANNELS 3 Zrotation Xrotation Yrotation
        JOINT RightLeg
        {
            OFFSET -0.000000 -81.181816 0.000000
            CHANNELS 3 Zrotation Xrotation Yrotation
            JOINT RightFoot
            {
                OFFSET -0.000000 -62.821102 0.000000
                CHANNELS 3 Zrotation Xrotation Yrotation
                JOINT RightToeBase
                {
                    OFFSET -0.000000 -11.507608 26.556021
                    CHANNELS 3 Zrotation Xrotation Yrotation
                    End Site
                    {
                        OFFSET -0.000000 0.000000 7.081605
                    }
                }
            }
        }
    }
}
MOTION
Frames:    9
Frame Time:    0.008333
26.639982    146.197601    55.002258    5.407389    1.338804    -98.303490    -1.074642    1.454446    -14.409361    6.040916    -0.051819    -4.805324    19.392242    2.690597    11.697454    -16.116823    4.290624    8.047889    14.340209    5.106349    -22.163578    -4.185649    -2.408561    -14.587626    26.518831    10.884977    -27.810575    -92.949768    32.095444    -15.264186    -12.759564    -5.409892    -18.350002    24.884317    -26.012972    25.163280    9.869589    -28.298502    108.364891    23.903627    -33.602558    34.691395    34.631622    -10.914437    26.741554    -34.944336    47.232800    22.606991    -6.022290    -27.108269    53.657204    0.000000    0.000000    0.000000    -23.556305    -30.591213    8.415147    2.751860    23.166067    -1.476411    19.326122    4.948996    7.604795    0.000000    0.000000    0.000000    
26.646864    146.203491    54.953720    5.372568    1.349957    -98.190331    -1.010418    1.453738    -14.347838    6.003246    -0.080111    -4.783076    19.352823    2.660707    11.704456    -16.106037    4.469000    8.081308    14.277033    5.091783    -22.158857    -4.172859    -2.473826    -14.631301    26.213408    10.655985    -27.867634    -92.630547    31.586494    -15.072427    -12.756418    -5.403639    -18.229654    24.929070    -25.953033    25.315998    9.813936    -28.357752    108.308525    23.901573    -33.576546    34.717018    34.642822    -10.930663    26.718685    -34.892864    47.226593    22.509705    -6.011782    -27.069057    53.654068    0.000000    0.000000    0.000000    -23.591852    -30.510386    8.325174    2.759652    23.184492    -1.459282    19.364540    4.902410    7.619709    0.000000    0.000000    0.000000    
26.658911    146.215118    54.904877    5.343161    1.350600    -98.090462    -0.982677    1.466767    -14.275186    5.976722    -0.133157    -4.756144    19.353205    2.673472    11.707513    -16.100037    4.606656    8.106732    14.288624    5.122010    -22.173634    -4.204953    -2.532038    -14.661117    26.172960    10.702914    -27.956400    -92.471420    31.607704    -15.082317    -12.708228    -5.373078    -18.104464    24.998800    -25.661402    25.563883    9.552764    -28.865467    108.169769    24.157021    -33.648510    34.736996    34.643341    -10.935346    26.692200    -34.846260    47.196312    22.409433    -5.993641    -27.021139    53.632221    0.000000    0.000000    0.000000    -23.630289    -30.438429    8.226290    2.770623    23.195587    -1.458725    19.362289    4.860337    7.638467    0.000000    0.000000    0.000000    
26.673109    146.232224    54.857552    5.319241    1.350101    -98.003830    -0.912285    1.474408    -14.180174    5.922334    -0.206808    -4.720467    19.301088    2.767253    11.645474    -16.148355    4.623516    8.062356    14.239968    5.148143    -22.195610    -4.202348    -2.478288    -14.653372    26.114342    10.466161    -28.012087    -92.268600    31.347500    -15.077168    -12.749002    -5.325752    -18.035053    25.158533    -25.590023    25.795748    9.478566    -28.909319    108.071770    24.119036    -33.588699    34.763519    34.642334    -10.940645    26.698364    -34.774937    47.175613    22.302334    -5.988484    -26.972980    53.609264    0.000000    0.000000    0.000000    -23.654978    -30.380663    8.112316    2.746756    23.205719    -1.447256    19.356218    4.854937    7.706437    0.000000    0.000000    0.000000    
26.688852    146.246643    54.814484    5.297108    1.340971    -97.921806    -0.847298    1.470845    -14.092905    5.875337    -0.254750    -4.688730    19.218401    2.746330    11.662786    -16.082561    4.758768    8.113263    14.157421    5.141310    -22.207270    -4.177467    -2.456506    -14.631796    26.064163    10.470756    -28.084103    -92.051598    31.345474    -15.123024    -12.766487    -5.285672    -17.905556    25.262844    -25.534014    25.988108    9.473913    -28.971777    108.045990    24.067373    -33.645348    34.795334    34.636173    -10.945848    26.701345    -34.720345    47.152920    22.222172    -6.005450    -26.934923    53.568676    0.000000    0.000000    0.000000    -23.690292    -30.327526    8.044001    2.751956    23.216118    -1.483903    19.353348    4.836759    7.767627    0.000000    0.000000    0.000000    
26.710432    146.265198    54.769058    5.278580    1.328118    -97.843445    -0.796366    1.485627    -14.007764    5.826696    -0.325829    -4.656671    19.226645    2.666714    11.747346    -16.013538    4.992493    8.226631    14.111638    5.131203    -22.218815    -4.184815    -2.440564    -14.589471    26.009804    10.416429    -28.172081    -91.833076    31.260895    -15.132455    -12.718514    -5.199651    -17.798464    25.351234    -25.516401    26.238836    9.436312    -29.031321    107.947197    24.019587    -33.652054    34.791683    34.626305    -10.950581    26.717506    -34.654999    47.129353    22.120848    -6.012961    -26.894215    53.536324    0.000000    0.000000    0.000000    -23.718538    -30.283363    7.968754    2.741060    23.229877    -1.470830    19.353386    4.814613    7.762888    0.000000    0.000000    0.000000    
26.738182    146.280899    54.716438    5.259697    1.314529    -97.765572    -0.775119    1.518134    -13.922851    5.834960    -0.406526    -4.624211    19.188526    2.664871    11.776489    -16.011433    5.097235    8.276670    14.045628    5.140827    -22.207579    -4.182876    -2.504010    -14.580564    25.970406    10.512113    -28.246515    -91.631500    31.349480    -15.183782    -12.723690    -5.141209    -17.706835    25.446157    -25.412455    26.490416    9.380693    -29.162550    107.837143    23.997297    -33.689545    34.825527    34.615177    -10.959315    26.742907    -34.568996    47.105747    22.034981    -6.028852    -26.833996    53.471054    0.000000    0.000000    0.000000    -23.742228    -30.244152    7.921268    2.732835    23.249928    -1.462844    19.361263    4.775550    7.769995    0.000000    0.000000    0.000000    
26.769453    146.295670    54.661865    5.246004    1.302428    -97.682976    -0.733862    1.542835    -13.841010    5.811609    -0.478100    -4.593240    19.130934    2.683988    11.796112    -15.962817    5.129916    8.317368    13.977304    5.129043    -22.187588    -4.158318    -2.556378    -14.552234    25.823900    10.494729    -28.324789    -91.349411    31.240055    -15.172581    -12.717418    -5.106242    -17.588150    25.530476    -25.322237    26.691256    9.281625    -29.332829    107.735764    24.080784    -33.703419    34.775417    34.611439    -10.971518    26.724684    -34.533974    47.054733    21.975273    -6.027566    -26.783249    53.444118    0.000000    0.000000    0.000000    -23.760603    -30.211466    7.864532    2.715077    23.277798    -1.446135    19.369465    4.733929    7.759537    0.000000    0.000000    0.000000    
26.811590    146.309738    54.604424    5.240398    1.295085    -97.590103    -0.697538    1.577240    -13.767607    5.806019    -0.551312    -4.564991    19.077101    2.684777    11.823216    -15.917236    5.163998    8.362085    13.903470    5.096345    -22.175287    -4.139202    -2.615600    -14.507843    25.643099    10.352420    -28.416164    -91.078331    30.959845    -15.095542    -12.702127    -5.039407    -17.499878    25.638266    -25.338337    26.940319    9.276993    -29.354824    107.613358    24.114714    -33.689968    34.754017    34.614265    -11.003423    26.710340    -34.486702    47.011250    21.913557    -6.040319    -26.736664    53.407860    0.000000    0.000000    0.000000    -23.771048    -30.181505    7.798244    2.675408    23.305159    -1.438932    19.373543    4.709032    7.785453    0.000000    0.000000    0.000000    
